<?xml version="1.0" encoding="UTF-8"?>
<svg xmlns="http://www.w3.org/2000/svg" viewBox="0 0 84.0052467 74.0919363">
  <defs>
    <style>
      .cls-1 {
        fill: none;
      }

      .cls-2 {
        fill: #f04e23;
      }

      .cls-3 {
        fill: #1a4797;
      }
    </style>
  </defs>
  <g id="Artwork">
    <g>
      <g>
        <path class="cls-2" d="M72.0010513,11.7091119v14.5401864h4.0015669v-14.5401904c0-2.2100022-1.7915607-4.0015629-4.0015629-4.0015629h-14.5401679v4.0015669h14.5401639Z"/>
        <g>
          <path class="cls-3" d="M16.8856144,16.9784217h-8.8819962v36.8990578h8.8819962c4.0809783,0,8.7654776-.7573708,8.7654776-6.662487v-23.5740838c0-5.9051162-4.6844993-6.662487-8.7654776-6.662487ZM14.0574936,21.2443591h2.8281208c1.7992505,0,2.7116022.8062972,2.7116022,2.3965496v23.5740838c0,1.5902523-.9123518,2.3965496-2.7116022,2.3965496h-2.8281208v-28.367183Z"/>
          <path class="cls-3" d="M45.7811441,32.5970016v-8.956093c0-5.9051162-4.6844993-6.662487-8.7654776-6.662487h-8.5906998v36.8990578h6.0538754v-13.5370831h1.5401946l5.243336,13.5370831h6.2345923l-5.5459449-14.2302555c2.6103555-1.0424453,3.830124-3.2964576,3.830124-7.0502224ZM34.4788421,21.2443591h2.5368244c1.7992505,0,2.7116022.8062972,2.7116022,2.3965496v10.1914161c0,1.5902523-.9123518,2.3965496-2.7116022,2.3965496h-2.5368244v-14.9845153Z"/>
          <path class="cls-3" d="M63.0389029,34.9828044c2.1960358-1.0167094,3.3072045-2.9562347,3.3072045-5.7829414v-5.5589543c0-5.9051162-4.6844993-6.662487-8.7654776-6.662487h-8.5906998v36.8990578h8.8819962c4.0809783,0,8.7654776-.7573708,8.7654776-6.662487v-6.3310312c0-3.0017674-1.1801748-4.9441208-3.5985009-5.9011569ZM60.2922319,30.4351861c0,1.5902523-.9123518,2.3965496-2.7116022,2.3965496h-2.5368244v-11.5873766h2.5368244c1.7992505,0,2.7116022.8062972,2.7116022,2.3965496v6.7942774ZM55.0438053,36.9432577h2.8281208c1.7992505,0,2.7116022.8062972,2.7116022,2.3965496v7.8751852c0,1.5902523-.9123518,2.3965496-2.7116022,2.3965496h-2.8281208v-12.6682843Z"/>
        </g>
        <path class="cls-3" d="M69.8213507,53.5679961c-.2750121-.1857994-.4778733-.4246638-.608439-.716593s-.1957762-.6022216-.1957762-.9310215c0-.3286554.0652105-.6396706.1957762-.9331904.1305657-.2933752.3334269-.5322395.608439-.716593.2748675-.1843535.6182712-.276458,1.0299218-.276458s.7541867.0921045,1.0277529.276458c.2734216.1843535.4754152.4232179.6059809.716593.1305657.2935197.1959208.604535.1959208.9331904,0,.3288-.0646322.6399598-.1936074.933335s-.3311134.5322395-.6059809.716593c-.2750121.1843535-.6184157.276458-1.0300663.276458s-.7550542-.0928274-1.0299218-.2787715ZM71.708408,53.3652795c.2335145-.1583272.4071683-.3648031.5208168-.6198617s.1704728-.5300706.1704728-.8250363c0-.2948211-.0568243-.5698332-.1704728-.8248917-.1136485-.2549139-.2865794-.4608115-.5185034-.6175482-.231924-.1565921-.5199493-.2349604-.8640759-.2349604-.347163,0-.6375018.0783683-.8710162.2349604-.2335145.1567367-.4063007.3617667-.5183588.6152347-.1122026.253468-.1683039.5293477-.1683039.8272052,0,.2949657.0561013.5699778.1683039.8250363.112058.2550585.2857118.4615345.5206722.6198617.235105.1581826.5245762.2372738.8687028.2372738.3410902,0,.6282479-.0790913.8617624-.2372738ZM70.0725053,50.7406635h.765031c.2794944,0,.4900189.047715.6312843.1428559.1412654.0952855.2119704.2596855.2119704.4931999,0,.1505192-.0238575.2703852-.071428.3594532s-.1344696.1628095-.2604084.2210797l.4055778,1.1198574h-.6359113l-.3134733-1.0046183h-.1289752v1.0046183h-.6036675v-2.3364461ZM70.7775311,51.7730433c.1229024,0,.209657-.0307979.2604084-.0922491s.0760549-.1489287.0760549-.2627219c0-.2150068-.0952855-.3225825-.2857118-.3225825h-.1521097v.6775535h.1013583Z"/>
      </g>
      <g>
        <path class="cls-3" d="M8.0026298,64.9197496v-5.5205507h2.7280481c.3809625,0,.6974706.0712667.9500483.2132761.2520536.1420094.4412248.339565.5669896.5916186.1262888.2520536.1891712.5444568.1891712.8772095,0,.3379929-.0696947.6372083-.209084.8971222-.1393893.2604379-.3369449.4627097-.5916186.6073392-.2546737.1451535-.5591293.2174683-.9133669.2174683h-1.9556427v2.1165168h-.7645452ZM8.767175,62.1434917h1.9074328c.3002635,0,.5402646-.0937996.7200035-.2819228.1797389-.1875992.2698703-.444893.2698703-.7724055,0-.2200884-.0377294-.4050675-.1126643-.5554612-.0754589-.1498697-.1849791-.2667262-.3301326-.3500454-.1446295-.0827952-.3269885-.1247168-.5470769-.1247168h-1.9074328v2.0845516Z"/>
        <path class="cls-3" d="M14.8756762,65.0161693c-.4296964,0-.7902222-.079127-1.0826253-.2373811s-.5151117-.4008753-.6681255-.7283878c-.1524898-.3269885-.2289967-.7425363-.2289967-1.2471676,0-.5093474.0765069-.9264674.2289967-1.2513598.1530138-.3243684.3757223-.5659416.6681255-.7241956s.6529289-.2373811,1.0826253-.2373811c.4286484,0,.7896981.079127,1.0821013.2373811s.5135396.3998273.6639333.7241956c.1498697.3248924.2253286.7420123.2253286,1.2513598,0,.5046313-.0754589.9201791-.2253286,1.2471676-.1503937.3275125-.3715302.5701338-.6639333.7283878s-.6534529.2373811-1.0821013.2373811ZM14.8756762,64.4208826c.2735384,0,.5014871-.05345.6838461-.1608741s.3207002-.2751105.4144998-.5030592.1404374-.5161597.1404374-.865157v-.1771188c0-.3542375-.0466378-.6434966-.1404374-.8688252s-.2321409-.391967-.4144998-.4993911c-.182359-.1069001-.4103077-.1608741-.6838461-.1608741-.2740625,0-.5030592.0539741-.6885623.1608741-.1849791.1074241-.3227963.2740625-.4139758.4993911-.0917035.2253286-.1367692.5145876-.1367692.8688252v.1771188c0,.3489973.0450657.6372083.1367692.865157.0911795.2279487.2289967.3956351.4139758.5030592.1855031.1074241.4144998.1608741.6885623.1608741Z"/>
        <path class="cls-3" d="M18.4966544,64.9197496l-1.2796569-4.2330336h.73258l.6434966,2.3256008c.0324892.1126643.0628824.234761.0927515.36629.0293451.131529.0586902.2520536.0885594.3620978.0293451.1100442.0492579.1944114.0602623.2536257h.0482098c.0214848-.1016599.0471618-.2174683.0765069-.3458532.0293451-.1289089.0560701-.2525776.0806991-.3704821.0241049-.1179045.0440177-.209084.0602623-.2735384l.5790421-2.3177405h.7645452l.5874264,2.3177405c.0214848.0911795.0455897.1970315.0728388.3180801.026725.1205246.0544981.2400012.0843672.3579057.0293451.1179045.0492579.2227085.0602623.313888h.0482098c.0214848-.0859393.0455897-.1865511.0723148-.3018355.027249-.1152844.0565942-.2331889.0885594-.3542375.0324892-.1205246.0618344-.2263766.0885594-.3175561l.6356363-2.3339851h.6759858l-1.2712725,4.2330336h-.7241956l-.5470769-2.1888316c-.0214848-.1016599-.0482098-.2211364-.0806991-.3584297-.0319652-.1367692-.0628824-.2761585-.0927515-.418168-.0293451-.1420094-.0550221-.2667262-.0759829-.3741503h-.0487339c-.0104804.0801751-.0277731.182359-.051878.3055037-.0241049.1236687-.052402.2588659-.0848912.4066395-.0319652.1477736-.0696947.2934512-.1126643.4386047l-.5470769,2.1888316h-.7241956Z"/>
        <path class="cls-3" d="M25.1517085,65.0161693c-.418168,0-.7713574-.079127-1.0579964-.2373811-.287163-.158254-.5046313-.4008753-.6518809-.7283878-.1477736-.3269885-.2211364-.7425363-.2211364-1.2471676,0-.5093474.0733628-.9264674.2211364-1.2513598.1472496-.3243684.36629-.5659416.656073-.7241956.289259-.158254.6518809-.2373811,1.0862935-.2373811.3966831,0,.7294358.0765069.9977341.2295208.2682982.1524898.47057.3809625.6078632.6838461.1367692.3028836.2048918.6827981.2048918,1.1386955v.3379929h-3.0419361c.0110044.3379929.0602623.6157235.1488217.8326678.0885594.2174683.2216605.3757223.3982552.4747621.1771188.0995638.3998273.1493457.6681255.1493457.182359,0,.3421851-.0230569.4789543-.0686466s.2520536-.1110922.3458532-.1970315.1650663-.1875992.2132761-.3060277c.0482098-.1179045.0749349-.2468134.0806991-.3862027h.6917064c-.0052402.2253286-.0482098.4333645-.1283849.6235838-.0806991.1907433-.1986036.3531895-.3542375.4868146-.1556339.1341491-.3458532.2389531-.5711818.313888-.2253286.0754589-.4831464.1126643-.7729295.1126643ZM23.9689953,62.4489953h2.2936356c0-.235809-.027249-.4344126-.0806991-.5952867s-.129957-.2924032-.2295208-.3945871c-.0990398-.1016599-.2143242-.1755467-.3458532-.2211364s-.2803507-.0681226-.446465-.0681226c-.2468134,0-.4564214.0455897-.627776.1367692-.1718786.0911795-.3034076.2305688-.3945871.418168-.0911795.1881232-.1472496.4291724-.1687344.7241956Z"/>
        <path class="cls-3" d="M27.8718963,64.9197496v-4.2330336h.5711818l.0644545.7000907h.0565942c.0424456-.1341491.1016599-.261486.1765947-.3820106.0754589-.1210486.1771188-.2200884.3060277-.2976434.1289089-.078079.287163-.1168565.4747621-.1168565.0806991,0,.1540619.0068123.2211364.0199128.0670746.0136245.1168565.0282971.1493457.0445417v.6518809h-.2656781c-.182359,0-.339565.0309172-.471094.0922275-.131529.0618344-.2400012.1488217-.3259404.261486s-.1488217.2468134-.1891712.4024474c-.0398255.1556339-.0602623.3222723-.0602623.498867v2.35809h-.707951Z"/>
        <path class="cls-3" d="M32.1531397,65.0161693c-.418692,0-.7713574-.079127-1.0585204-.2373811-.2866389-.158254-.5041072-.4008753-.6518809-.7283878-.1472496-.3269885-.2211364-.7425363-.2211364-1.2471676,0-.5093474.0738868-.9264674.2211364-1.2513598.1477736-.3243684.36629-.5659416.656073-.7241956s.6518809-.2373811,1.0862935-.2373811c.3972072,0,.7299599.0765069.9982581.2295208.2677742.1524898.47057.3809625.6073392.6838461s.2054158.6827981.2054158,1.1386955v.3379929h-3.0419361c.0104804.3379929.0602623.6157235.1488217.8326678.0885594.2174683.2211364.3757223.3982552.4747621.1771188.0995638.3998273.1493457.6681255.1493457.182359,0,.341661-.0230569.4784303-.0686466s.2520536-.1110922.3463772-.1970315c.0937996-.0859393.1650663-.1875992.2132761-.3060277.0482098-.1179045.0749349-.2468134.0801751-.3862027h.6922304c-.0052402.2253286-.0482098.4333645-.1289089.6235838-.0801751.1907433-.1986036.3531895-.3542375.4868146-.1556339.1341491-.3458532.2389531-.5711818.313888-.2253286.0754589-.4826224.1126643-.7724055.1126643ZM30.9699026,62.4489953h2.2936356c0-.235809-.026725-.4344126-.0801751-.5952867-.0539741-.1608741-.130481-.2924032-.2295208-.3945871-.0995638-.1016599-.2148482-.1755467-.3458532-.2211364-.131529-.0455897-.2808747-.0681226-.4469891-.0681226-.2468134,0-.4558974.0455897-.627776.1367692-.1713545.0911795-.3028836.2305688-.394063.418168-.0911795.1881232-.1477736.4291724-.1692585.7241956Z"/>
        <path class="cls-3" d="M36.3133346,65.0161693c-.3484733,0-.6476887-.077555-.8971222-.2331889s-.4427969-.3982552-.5795661-.7283878-.2048918-.7577329-.2048918-1.283325c0-.498867.0696947-.9096987.209084-1.231447s.3327527-.5607014.5795661-.7163353c.2462894-.1556339.5334524-.2331889.8609649-.2331889.1875992,0,.3620978.0214848.522972.0644545s.3044556.1100442.4307444.2012237c.1257648.0911795.2373811.2117041.3338007.3620978h.0482098v-2.1165168h.708475v5.8181941h-.5717058l-.0644545-.603671h-.0560701c-.1451535.236333-.3327527.4118797-.5633215.5271641s-.4831464.1729266-.7566849.1729266ZM36.482593,64.3967777c.2682982,0,.4852425-.0592143.6518809-.1771188.1661143-.1179045.288211-.2897831.365766-.5151117.078079-.2253286.1168565-.5041072.1168565-.8368599v-.1289089c0-.2897831-.0293451-.5334524-.0885594-.7320559s-.1393893-.3568576-.2410492-.4747621c-.1021839-.1179045-.2200884-.2012237-.3542375-.2494335-.1341491-.0487339-.2766826-.0728388-.4265523-.0728388-.263058,0-.4773822.052402-.6440206.157206-.1661143.104804-.2897831.2682982-.3699581.4910067-.0806991.2227085-.1205246.5109195-.1205246.865157v.1687344c0,.3647179.0424456.6586931.1283849.8814016s.210656.3820106.3741503.4784303c.1640183.0969437.36629.1451535.6078632.1451535Z"/>
        <path class="cls-3" d="M43.1292627,65.0161693c-.2845429,0-.5392166-.0576422-.7645452-.1729266s-.4103077-.2908311-.5549372-.5271641h-.0565942l-.0723148.603671h-.5633215v-5.8181941h.707951v2.1165168h.0482098c.0969437-.1503937.209608-.2709183.3379929-.3620978.1289089-.0911795.2740625-.158254.4349366-.2012237s.3322287-.0644545.5151117-.0644545c.3269885,0,.6141514.077555.8609649.2331889s.4386047.3945871.575374.7163353.2048918.73258.2048918,1.231447c0,.5255921-.0670746.9531924-.2012237,1.283325s-.3243684.5727539-.5711818.7283878-.5470769.2331889-.9013144.2331889ZM42.9605283,64.3967777c.2410492,0,.4438449-.0482098.6073392-.1451535.1634942-.0964197.288211-.2557218.3741503-.4784303s.1289089-.5166837.1289089-.8814016v-.1687344c0-.3542375-.0403495-.6424485-.1205246-.865157-.0806991-.2227085-.2043678-.3862027-.3704821-.4910067s-.3809625-.157206-.6434966-.157206c-.1503937,0-.2929272.0241049-.4265523.0728388-.1341491.0482098-.2536257.131529-.3584297.2494335-.10428.1179045-.1849791.2761585-.2410492.4747621-.0565942.1986036-.0848912.4422729-.0848912.7320559v.1289089c0,.3327527.0387775.6115313.1168565.8368599.077555.2253286.2012237.3972072.3699581.5151117.1692585.1179045.3851547.1771188.6482127.1771188Z"/>
        <path class="cls-3" d="M46.0265694,66.3843856c-.1289089,0-.2400012-.0094324-.3338007-.0282971-.0943236-.0188647-.157206-.0309172-.1891712-.0361574v-.5151117h.3537135c.1289089,0,.2551977-.026725.3783424-.0801751.1236687-.0539741.2389531-.1451535.3463772-.2735384.1069001-.1289089.1980796-.3060277.2735384-.5313563l-1.6417547-4.2330336h.7404403l.8447202,2.1809713c.0377294.1021839.0817471.2269007.1331011.3741503.0508299.1477736.1016599.2992154.1524898.4548494.051354.1556339.0927515.2924032.1247168.4103077h.0487339c.0209608-.0859393.0482098-.182359.0801751-.2897831.0324892-.1074241.0655025-.2185163.1006118-.3338007s.0696947-.2253286.104804-.3301326c.0345853-.104804.0628824-.1970315.0843672-.2777306l.7163353-2.1888316h.7163353l-1.4326707,4.112509c-.0806991.2305688-.1687344.4438449-.2656781.6398284-.0964197.1954595-.2038438.3631459-.3217483.5025352s-.2604379.2483855-.4265523.3259404c-.1661143.078079-.3620978.1168565-.5874264.1168565Z"/>
        <path class="cls-3" d="M52.9876511,64.9197496l-2.0604467-5.5205507h.8289996l1.4164261,3.9112853c.0319652.0749349.0644545.1608741.0964197.2572938.0324892.0964197.0644545.1907433.0969437.2819228.0319652.0911795.0613103.1713545.0880354.2410492h.0487339c.0209608-.0644545.0482098-.1420094.0801751-.2331889.0324892-.0911795.0644545-.183931.0964197-.2777306.0324892-.0937996.0644545-.183931.0969437-.2693463l1.4001815-3.9112853h.8048947l-2.068307,5.5205507h-.9254193Z"/>
        <path class="cls-3" d="M57.9930902,65.0161693c-.4296964,0-.7902222-.079127-1.0826253-.2373811s-.5151117-.4008753-.6681255-.7283878c-.1524898-.3269885-.2289967-.7425363-.2289967-1.2471676,0-.5093474.0765069-.9264674.2289967-1.2513598.1530138-.3243684.3757223-.5659416.6681255-.7241956s.6529289-.2373811,1.0826253-.2373811c.4286484,0,.7896981.079127,1.0821013.2373811s.5135396.3998273.6639333.7241956c.1498697.3248924.2253286.7420123.2253286,1.2513598,0,.5046313-.0754589.9201791-.2253286,1.2471676-.1503937.3275125-.3715302.5701338-.6639333.7283878s-.6534529.2373811-1.0821013.2373811ZM57.9930902,64.4208826c.2735384,0,.5014871-.05345.6838461-.1608741s.3207002-.2751105.4144998-.5030592.1404374-.5161597.1404374-.865157v-.1771188c0-.3542375-.0466378-.6434966-.1404374-.8688252s-.2321409-.391967-.4144998-.4993911c-.182359-.1069001-.4103077-.1608741-.6838461-.1608741-.2740625,0-.5030592.0539741-.6885623.1608741-.1849791.1074241-.3227963.2740625-.4139758.4993911-.0917035.2253286-.1367692.5145876-.1367692.8688252v.1771188c0,.3489973.0450657.6372083.1367692.865157.0911795.2279487.2289967.3956351.4139758.5030592.1855031.1074241.4144998.1608741.6885623.1608741Z"/>
        <path class="cls-3" d="M60.8416629,64.9197496v-4.2330336h.5711818l.0644545.6356363h.0565942c.1126643-.1713545.2400012-.3107439.3820106-.418168s.3002635-.1865511.4747621-.2373811.3610498-.0765069.5591293-.0765069c.2682982,0,.5030592.0455897.7042829.1367692s.3594777.2389531.4747621.4427969.1729266.4800023.1729266.8284756v2.9214115h-.707951v-2.8244678c0-.1771188-.0230569-.3222723-.0686466-.4349366s-.1069001-.2012237-.1849791-.2651541c-.077555-.0644545-.1718786-.1100442-.2813987-.1367692-.1100442-.027249-.2321409-.0403495-.36629-.0403495-.1986036,0-.3862027.0482098-.5633215.1446295s-.3180801.236333-.4223601.418692c-.104804.182359-.157206.3998273-.157206.6518809v2.4864749h-.707951Z"/>
        <path class="cls-3" d="M66.3622137,65.0161693c-.2200884,0-.391967-.0413976-.5151117-.1247168-.1236687-.0827952-.2122281-.1928394-.2656781-.3296086s-.0801751-.2829708-.0801751-.4386047v-2.8407124h-.5476009v-.5958107h.5633215l.1289089-1.1827132h.5633215v1.1827132h.7965104v.5958107h-.7965104v2.7359084c0,.1341491.0241049.234761.0723148.3018355s.1393893.1006118.2735384.1006118h.4506572v.4669018c-.05345.026725-.1179045.0482098-.1928394.0639304-.0754589.0162446-.1519658.0309172-.2295208.0445417-.077555.0131005-.1514418.0199128-.2211364.0199128Z"/>
        <path class="cls-3" d="M67.7623951,59.8902056v-.7886501h.707951v.7886501h-.707951ZM67.7623951,64.9197496v-4.2330336h.707951v4.2330336h-.707951Z"/>
        <path class="cls-3" d="M71.2628487,65.0161693c-.418692,0-.7713574-.079127-1.0585204-.2373811-.2866389-.158254-.5041072-.4008753-.6518809-.7283878-.1472496-.3269885-.2211364-.7425363-.2211364-1.2471676,0-.5093474.0738868-.9264674.2211364-1.2513598.1477736-.3243684.36629-.5659416.656073-.7241956s.6518809-.2373811,1.0862935-.2373811c.3972072,0,.7299599.0765069.9982581.2295208.2677742.1524898.47057.3809625.6073392.6838461s.2054158.6827981.2054158,1.1386955v.3379929h-3.0419361c.0104804.3379929.0602623.6157235.1488217.8326678.0885594.2174683.2211364.3757223.3982552.4747621.1771188.0995638.3998273.1493457.6681255.1493457.182359,0,.341661-.0230569.4784303-.0686466s.2520536-.1110922.3463772-.1970315c.0937996-.0859393.1650663-.1875992.2132761-.3060277.0482098-.1179045.0749349-.2468134.0801751-.3862027h.6922304c-.0052402.2253286-.0482098.4333645-.1289089.6235838-.0801751.1907433-.1986036.3531895-.3542375.4868146-.1556339.1341491-.3458532.2389531-.5711818.313888-.2253286.0754589-.4826224.1126643-.7724055.1126643ZM70.0796116,62.4489953h2.2936356c0-.235809-.026725-.4344126-.0801751-.5952867-.0539741-.1608741-.130481-.2924032-.2295208-.3945871-.0995638-.1016599-.2148482-.1755467-.3458532-.2211364-.131529-.0455897-.2808747-.0681226-.4469891-.0681226-.2468134,0-.4558974.0455897-.627776.1367692-.1713545.0911795-.3028836.2305688-.394063.418168-.0911795.1881232-.1477736.4291724-.1692585.7241956Z"/>
        <path class="cls-3" d="M73.9825126,64.9197496v-4.2330336h.5717058l.0644545.7000907h.0560701c.0429696-.1341491.1016599-.261486.1771188-.3820106.0749349-.1210486.1771188-.2200884.3060277-.2976434.1283849-.078079.2866389-.1168565.4747621-.1168565.0801751,0,.1540619.0068123.2211364.0199128.0670746.0136245.1168565.0282971.1488217.0445417v.6518809h-.2656781c-.182359,0-.3390409.0309172-.47057.0922275-.131529.0618344-.2400012.1488217-.3259404.261486s-.1488217.2468134-.1891712.4024474-.0602623.3222723-.0602623.498867v2.35809h-.708475Z"/>
      </g>
    </g>
  </g>
  <g id="Safe-Area">
    <g>
      <rect class="cls-1" x="76.0021149" y="3.8537754" width="4.0015659" height="3.8537754"/>
      <rect class="cls-1" x="80.0036808" width="4.0015659" height="3.8537754"/>
      <rect class="cls-1" x="4.0015659" y="3.8537754" width="4.0015659" height="3.8537754"/>
      <rect class="cls-1" x="4.0015659" y="66.3843856" width="4.0015659" height="3.8537754"/>
      <rect class="cls-1" y="70.2381609" width="4.0015659" height="3.8537754"/>
      <rect class="cls-1" x="76.0021149" y="66.3843856" width="4.0015659" height="3.8537754"/>
    </g>
  </g>
</svg>