<svg xmlns="http://www.w3.org/2000/svg" viewBox="0 0 1138 584" width="1138" height="584">
  <path d="M1088.5,539.0 L1028.0,539.5 L800.0,264.5 L800.0,538.5 L708.0,540.5 L681.5,537.0 L682.0,268.5 L548.0,450.5 L541.5,447.0 L412.0,270.5 L412.5,537.0 L408.0,540.5 L297.0,539.5 L296.0,145.5 L263.5,147.0 L265.5,537.0 L147.0,539.5 L145.5,146.0 L7.0,144.5 L6.5,31.0 L378.0,29.5 L548.0,256.5 L713.5,32.0 L719.0,28.5 L755.0,28.5 L971.0,287.5 L969.5,32.0 L974.0,28.5 L1086.0,29.5 L1088.5,539.0 Z M756.5,498.0 L757.0,149.5 L762.5,150.0 L1046.5,494.0 L1044.0,70.5 L1014.5,73.0 L1013.0,401.5 L739.0,72.5 L550.5,325.0 L545.0,325.5 L357.0,71.5 L49.5,71.0 L50.0,104.5 L189.5,106.0 L190.0,497.5 L220.5,497.0 L219.5,107.0 L337.0,104.5 L339.0,497.5 L370.5,497.0 L368.5,149.0 L373.0,146.5 L548.0,380.5 L717.5,151.0 L726.0,147.5 L725.5,497.0 L756.5,498.0 Z" fill="#111111" fill-rule="evenodd"/>
</svg>
